<svg xmlns="http://www.w3.org/2000/svg" width="17.902" height="13.921" viewBox="0 0 17.902 13.921">
  <path id="Icon_awesome-home" data-name="Icon awesome-home" d="M8.713,5.865l-5.73,4.719v5.093a.5.5,0,0,0,.5.5l3.483-.009a.5.5,0,0,0,.495-.5V12.694a.5.5,0,0,1,.5-.5H9.944a.5.5,0,0,1,.5.5v2.972a.5.5,0,0,0,.5.5l3.481.01a.5.5,0,0,0,.5-.5v-5.1L9.188,5.865A.379.379,0,0,0,8.713,5.865Zm9.051,3.208-2.6-2.142v-4.3a.373.373,0,0,0-.373-.373h-1.74a.373.373,0,0,0-.373.373V4.883L9.9,2.594a1.492,1.492,0,0,0-1.9,0L.134,9.073a.373.373,0,0,0-.05.525l.792.963a.373.373,0,0,0,.526.051l7.31-6.021a.379.379,0,0,1,.475,0L16.5,10.612a.373.373,0,0,0,.525-.05l.792-.963a.373.373,0,0,0-.053-.526Z" transform="translate(0.001 -2.254)" fill="#f68223"/>
</svg>
