<svg xmlns="http://www.w3.org/2000/svg" width="17.443" height="15.262" viewBox="0 0 17.443 15.262">
  <path id="Icon_awesome-wallet" data-name="Icon awesome-wallet" d="M15.712,5.521H2.725a.545.545,0,0,1,0-1.09H15.807a.545.545,0,0,0,.545-.545A1.635,1.635,0,0,0,14.717,2.25H2.18A2.18,2.18,0,0,0,0,4.43v10.9a2.18,2.18,0,0,0,2.18,2.18H15.712a1.687,1.687,0,0,0,1.731-1.635V7.156A1.687,1.687,0,0,0,15.712,5.521Zm-1.54,7.086a1.09,1.09,0,1,1,1.09-1.09A1.09,1.09,0,0,1,14.172,12.607Z" transform="translate(0 -2.25)" fill="#f68223"/>
</svg>
