<svg xmlns="http://www.w3.org/2000/svg" width="194.303" height="117.114" viewBox="0 0 194.303 117.114">
  <g id="Group_19" data-name="Group 19" transform="translate(-57.49 -81.966)">
    <g id="Group_16" data-name="Group 16" transform="translate(57.49 157.252)">
      <path id="Path_4" data-name="Path 4" d="M72.094,236.312h6.818v5.205H70.2a22.233,22.233,0,0,1-4.86-.529,8.932,8.932,0,0,1-4.261-2.327,10.838,10.838,0,0,1-2.441-3.569,14.57,14.57,0,0,1-1.106-4.216q0-.323-.022-.668c-.017-.23-.024-.453-.024-.669,0-.275.007-.551.024-.828s.037-.553.069-.83a13.24,13.24,0,0,1,1.06-4.145,10.9,10.9,0,0,1,2.441-3.547,9.1,9.1,0,0,1,4.261-2.35,21.265,21.265,0,0,1,4.86-.553l8.707-.047v5.252H72.094a.911.911,0,0,1-.3.047H70.481a11.433,11.433,0,0,0-1.8.138,4.693,4.693,0,0,0-1.658.6,4.97,4.97,0,0,0-2.28,2.718,10.992,10.992,0,0,0-.577,3.547,10.73,10.73,0,0,0,.646,3.433,4.982,4.982,0,0,0,2.211,2.6,4.7,4.7,0,0,0,1.658.6,17.05,17.05,0,0,0,1.8.183h1.612Z" transform="translate(-57.49 -208.441)" fill="#f28230"/>
      <path id="Path_5" data-name="Path 5" d="M118.335,238.362a10.67,10.67,0,0,1-4.215,2.58,15.846,15.846,0,0,1-5.091.83,15.634,15.634,0,0,1-5.067-.83,10.962,10.962,0,0,1-4.192-2.533,11.115,11.115,0,0,1-2.695-4.192,14.477,14.477,0,0,1,0-10.043,11.006,11.006,0,0,1,6.909-6.749,15.492,15.492,0,0,1,10.135,0,11,11,0,0,1,6.91,6.749,14.477,14.477,0,0,1,0,10.043,11.115,11.115,0,0,1-2.695,4.192Zm-11.47-2.257a6,6,0,0,0,.621.231,4.484,4.484,0,0,0,.577.138,6.147,6.147,0,0,0,4.145-.829,5.6,5.6,0,0,0,2.579-3.363,10.843,10.843,0,0,0,.346-1.681,14.374,14.374,0,0,0,.116-1.821,9.846,9.846,0,0,0-.968-3.846,5.33,5.33,0,0,0-2.809-2.649,4.171,4.171,0,0,0-.876-.277c-.306-.062-.6-.107-.875-.138a6.272,6.272,0,0,0-3.962.968,5.675,5.675,0,0,0-2.488,3.224,10.987,10.987,0,0,0-.346,1.635,8.912,8.912,0,0,0-.07,1.682,9.549,9.549,0,0,0,.991,4.076,5.332,5.332,0,0,0,3.018,2.695Z" transform="translate(-72.13 -208.189)" fill="#f28230"/>
      <path id="Path_6" data-name="Path 6" d="M143.9,209.12v-6.035h6.726v6.035Zm0,27.041V211.884h6.726v24.277Z" transform="translate(-90.189 -203.085)" fill="#f28230"/>
      <path id="Path_7" data-name="Path 7" d="M175.683,217.24a13.253,13.253,0,0,1,7.462,1.89q2.672,1.841,2.671,7.048v15.34h-6.4v-14.6q0-2.532-.828-3.409t-3.409-.875l-5.16-.046v18.934h-6.4V217.24Z" transform="translate(-97.648 -208.441)" fill="#f28230"/>
      <path id="Path_8" data-name="Path 8" d="M227.734,247.828q-2.119,2.442-7.048,2.441H208.111v-4.929h11.471a4.256,4.256,0,0,0,2.925-.99,3.491,3.491,0,0,0,.9-2.833H218.2a33.783,33.783,0,0,1-4.883-.323,7.68,7.68,0,0,1-4.237-2.3,10.555,10.555,0,0,1-2.465-3.685,15.933,15.933,0,0,1-1.082-4.33c0-.245-.008-.484-.023-.714s-.024-.453-.024-.667q0-.415.024-.83t.069-.83a14.735,14.735,0,0,1,1.082-4.145,10.624,10.624,0,0,1,2.419-3.547,8.927,8.927,0,0,1,4.237-2.327,22.263,22.263,0,0,1,4.883-.529l11.654-.047v23.4Q229.853,245.386,227.734,247.828ZM220.088,236.5H223.4V222.446a7.6,7.6,0,0,1-1.658,0h-1.2a16.253,16.253,0,0,0-5.551.829q-2.557.876-2.787,4.93c0,.183-.007.368-.022.551s-.024.37-.024.553a11.322,11.322,0,0,0,.438,3.432,5.083,5.083,0,0,0,2.05,2.788,4.484,4.484,0,0,0,1.82.783,14.37,14.37,0,0,0,2,.23h1.612Z" transform="translate(-113.493 -208.441)" fill="#f3f3f3"/>
      <path id="Path_9" data-name="Path 9" d="M272.848,238.362a10.667,10.667,0,0,1-4.214,2.58,15.846,15.846,0,0,1-5.091.83,15.637,15.637,0,0,1-5.067-.83,10.96,10.96,0,0,1-4.191-2.533,11.109,11.109,0,0,1-2.7-4.192,14.476,14.476,0,0,1,0-10.043,11.009,11.009,0,0,1,6.91-6.749,15.492,15.492,0,0,1,10.135,0,11.006,11.006,0,0,1,6.909,6.749,14.477,14.477,0,0,1,0,10.043,11.115,11.115,0,0,1-2.695,4.192Zm-11.47-2.257a5.989,5.989,0,0,0,.62.231,4.483,4.483,0,0,0,.577.138,6.147,6.147,0,0,0,4.145-.829,5.594,5.594,0,0,0,2.579-3.363,10.851,10.851,0,0,0,.346-1.681,14.276,14.276,0,0,0,.116-1.821,9.847,9.847,0,0,0-.968-3.846,5.328,5.328,0,0,0-2.809-2.649,4.158,4.158,0,0,0-.876-.277c-.306-.062-.6-.107-.875-.138a6.273,6.273,0,0,0-3.962.968,5.678,5.678,0,0,0-2.488,3.224,11.072,11.072,0,0,0-.346,1.635,8.914,8.914,0,0,0-.069,1.682,9.54,9.54,0,0,0,.99,4.076,5.332,5.332,0,0,0,3.018,2.695Z" transform="translate(-130.599 -208.189)" fill="#f3f3f3"/>
      <path id="Path_10" data-name="Path 10" d="M311.37,217.24a20.806,20.806,0,0,1,4.076.484,7.15,7.15,0,0,1,3.524,2,7,7,0,0,1,1.865,3.041,12.351,12.351,0,0,1,.53,3.593v15.156H304.137a7.57,7.57,0,0,1-5.711-2.051,7.275,7.275,0,0,1-1.8-5.689q.323-4.376,3.087-5.666a15.485,15.485,0,0,1,6.588-1.29l8.429-.047q.138-2.991-1.543-3.73a10.656,10.656,0,0,0-4.261-.737l-10.687-.047V217.24Zm-4.607,19.394h8.015v-5.02h-7.555a.41.41,0,0,1-.183.045h-.185a7.16,7.16,0,0,0-2.394.484,2.013,2.013,0,0,0-1.152,2.051q-.093,1.8.99,2.119a9.746,9.746,0,0,0,2.465.368Z" transform="translate(-147.977 -208.441)" fill="#f3f3f3"/>
      <path id="Path_11" data-name="Path 11" d="M346.138,211.884v-8.8h6.4v8.8h6.771v4.837h-6.771v9.812q-.048,3.641,1.658,4.239a14.662,14.662,0,0,0,4.7.6h.415v4.791h-5.85a7.034,7.034,0,0,1-5.482-2.028,7.9,7.9,0,0,1-1.842-5.527V216.721h-4.515v-4.837Z" transform="translate(-165.009 -203.085)" fill="#f3f3f3"/>
    </g>
    <g id="Group_17" data-name="Group 17" transform="translate(123.456 81.966)">
      <path id="Path_12" data-name="Path 12" d="M226.18,107.2a31.552,31.552,0,0,0-44.441-22.179c-.155.076-.3.149-.445.22a33.3,33.3,0,0,1,6.88,2.331,2.671,2.671,0,0,1,.3-.1,25.439,25.439,0,0,1,19.121,2.366,26.806,26.806,0,0,1-10.468,50.628V118.848h7.815l.656,6.686c.533,1.545,1.686,1.184,1.909.809,1.348-2.261,1.9-7.549,7.255-7.443,3.78-.27,3.649-6.553.692-6.793-2.154-.043-5.086-2.317-8.978-6.749-.7-.8-.592-2.351-1.358-3.187-.532-.582-1.957-.405-2.486-1.026a49.933,49.933,0,0,0-7-6.767,40.9,40.9,0,0,0-8.423-5.205,32.131,32.131,0,0,0-5.178-1.842,24.868,24.868,0,0,0-17.018,1.375.2.2,0,0,0,.06.369c6.153.668,16.289,1.7,21.906,8.88a17.327,17.327,0,0,1,2.182,3.63c-2.552,1.89-5.262,5.523-7.7,10.726v0l-.019.045q-.8,1.716-1.563,3.657l-5.988,14.012a26.858,26.858,0,0,1,3.4-36.594,33.8,33.8,0,0,0-5.087-1.451A31.589,31.589,0,1,0,226.18,107.2Z" transform="translate(-163.614 -81.966)" fill="#f28230"/>
      <path id="Path_13" data-name="Path 13" d="M193.245,90.6c.837.218,1.667.475,2.488.763Q194.5,90.927,193.245,90.6Z" transform="translate(-174.827 -85.233)" fill="#f28230"/>
      <path id="Path_14" data-name="Path 14" d="M198.565,92.319q-.369-.145-.741-.282C198.072,92.127,198.319,92.222,198.565,92.319Z" transform="translate(-176.56 -85.777)" fill="#f28230"/>
      <path id="Path_15" data-name="Path 15" d="M200.395,93.057c-.182-.08-.364-.159-.547-.235C200.031,92.9,200.213,92.978,200.395,93.057Z" transform="translate(-177.326 -86.074)" fill="#f28230"/>
    </g>
  </g>
</svg>
