<svg xmlns="http://www.w3.org/2000/svg" width="18.435" height="13.826" viewBox="0 0 18.435 13.826">
  <path id="Icon_metro-profile" data-name="Icon metro-profile" d="M21.617,9.687H20.328V7.753l-2.661-.041.014,1.975h-8l.055-1.975-2.606.041V9.728L5.816,9.687A1.317,1.317,0,0,0,4.5,11v9.218a1.317,1.317,0,0,0,1.317,1.317h15.8a1.317,1.317,0,0,0,1.317-1.317V11A1.317,1.317,0,0,0,21.617,9.687ZM18.325,8.371h1.317V11H18.325ZM9.766,12.856a1.714,1.714,0,0,1,1.441,1.893,1.714,1.714,0,0,1-1.441,1.893,1.714,1.714,0,0,1-1.441-1.893,1.714,1.714,0,0,1,1.441-1.893ZM7.791,8.371H9.108V11H7.791Zm-.878,10.5s.156-1.252.511-1.489A5.05,5.05,0,0,1,8.8,16.988s.662.708.944.708.943-.708.943-.708a5.034,5.034,0,0,1,1.377.394c.417.278.521,1.489.521,1.489H6.913ZM20.3,18.247H14.375v-.658H20.3Zm0-1.317H14.375v-.658H20.3Zm0-1.317H14.375v-.658H20.3Zm0-1.317H14.375v-.658H20.3Z" transform="translate(-4.499 -7.712)" fill="#ffffff"/>
</svg>
