<svg xmlns="http://www.w3.org/2000/svg" width="89.669" height="54.047" viewBox="0 0 89.669 54.047">
  <g id="Group_20" data-name="Group 20" transform="translate(-57.49 -81.966)">
    <g id="Group_16" data-name="Group 16" transform="translate(57.49 116.71)">
      <path id="Path_4" data-name="Path 4" d="M64.229,226.042h3.146v2.4H63.358a10.261,10.261,0,0,1-2.243-.244,4.122,4.122,0,0,1-1.966-1.074,5,5,0,0,1-1.126-1.647,6.724,6.724,0,0,1-.511-1.946q0-.149-.01-.308c-.008-.106-.011-.209-.011-.309,0-.127,0-.254.011-.382s.017-.255.032-.383a6.11,6.11,0,0,1,.489-1.913,5.031,5.031,0,0,1,1.126-1.637,4.2,4.2,0,0,1,1.966-1.084,9.813,9.813,0,0,1,2.243-.255l4.018-.021v2.424H64.229a.421.421,0,0,1-.138.022h-.606a5.277,5.277,0,0,0-.829.064,2.166,2.166,0,0,0-.765.276,2.294,2.294,0,0,0-1.052,1.254,5.073,5.073,0,0,0-.266,1.637,4.952,4.952,0,0,0,.3,1.584,2.3,2.3,0,0,0,1.02,1.2,2.168,2.168,0,0,0,.765.277,7.862,7.862,0,0,0,.829.085h.744Z" transform="translate(-57.49 -213.18)" fill="#f28230"/>
      <path id="Path_5" data-name="Path 5" d="M106.4,226.628a4.924,4.924,0,0,1-1.945,1.19,7.313,7.313,0,0,1-2.349.383,7.215,7.215,0,0,1-2.338-.383,5.059,5.059,0,0,1-1.935-1.169,5.129,5.129,0,0,1-1.244-1.935,6.681,6.681,0,0,1,0-4.635,5.079,5.079,0,0,1,3.188-3.114,7.15,7.15,0,0,1,4.677,0,5.079,5.079,0,0,1,3.189,3.114,6.681,6.681,0,0,1,0,4.635,5.129,5.129,0,0,1-1.244,1.935Zm-5.293-1.042a2.781,2.781,0,0,0,.287.107,2.079,2.079,0,0,0,.267.064,2.837,2.837,0,0,0,1.913-.383,2.584,2.584,0,0,0,1.19-1.552,5.007,5.007,0,0,0,.159-.776,6.634,6.634,0,0,0,.053-.84,4.544,4.544,0,0,0-.447-1.775,2.46,2.46,0,0,0-1.3-1.222,1.925,1.925,0,0,0-.4-.128c-.141-.028-.276-.049-.4-.064a2.9,2.9,0,0,0-1.828.447,2.619,2.619,0,0,0-1.148,1.488,5.072,5.072,0,0,0-.159.754,4.114,4.114,0,0,0-.032.776,4.407,4.407,0,0,0,.457,1.881,2.461,2.461,0,0,0,1.393,1.244Z" transform="translate(-85.079 -212.704)" fill="#f28230"/>
      <path id="Path_6" data-name="Path 6" d="M143.9,205.87v-2.785h3.1v2.785Zm0,12.479v-11.2h3.1v11.2Z" transform="translate(-119.114 -203.085)" fill="#f28230"/>
      <path id="Path_7" data-name="Path 7" d="M169.184,217.24a6.116,6.116,0,0,1,3.444.872q1.233.85,1.233,3.252v7.079h-2.955V221.7a2.355,2.355,0,0,0-.382-1.573,2.214,2.214,0,0,0-1.573-.4l-2.381-.021v8.738h-2.955v-11.2Z" transform="translate(-133.171 -213.18)" fill="#f28230"/>
      <path id="Path_8" data-name="Path 8" d="M215.753,231.356a4.108,4.108,0,0,1-3.252,1.127h-5.8v-2.274h5.294a1.964,1.964,0,0,0,1.35-.457,1.611,1.611,0,0,0,.414-1.307h-2.4a15.591,15.591,0,0,1-2.254-.149,3.544,3.544,0,0,1-1.956-1.063,4.87,4.87,0,0,1-1.137-1.7,7.353,7.353,0,0,1-.5-2c0-.113,0-.223-.011-.33s-.011-.209-.011-.308q0-.192.011-.383t.032-.383a6.8,6.8,0,0,1,.5-1.913,4.9,4.9,0,0,1,1.116-1.637,4.12,4.12,0,0,1,1.956-1.074,10.276,10.276,0,0,1,2.254-.244l5.378-.021v10.8A4.928,4.928,0,0,1,215.753,231.356Zm-3.529-5.23h1.53v-6.484a3.508,3.508,0,0,1-.765,0h-.553a7.5,7.5,0,0,0-2.562.382q-1.18.4-1.286,2.275c0,.085,0,.17-.01.254s-.011.171-.011.255a5.226,5.226,0,0,0,.2,1.584,2.346,2.346,0,0,0,.946,1.287,2.07,2.07,0,0,0,.84.361,6.633,6.633,0,0,0,.925.106h.744Z" transform="translate(-163.031 -213.18)" fill="#3e384f"/>
      <path id="Path_9" data-name="Path 9" d="M260.916,226.628a4.923,4.923,0,0,1-1.945,1.19,7.313,7.313,0,0,1-2.349.383,7.217,7.217,0,0,1-2.338-.383,5.058,5.058,0,0,1-1.934-1.169,5.127,5.127,0,0,1-1.244-1.935,6.681,6.681,0,0,1,0-4.635,5.08,5.08,0,0,1,3.189-3.114,7.15,7.15,0,0,1,4.677,0,5.079,5.079,0,0,1,3.188,3.114,6.681,6.681,0,0,1,0,4.635,5.129,5.129,0,0,1-1.244,1.935Zm-5.293-1.042a2.775,2.775,0,0,0,.286.107,2.078,2.078,0,0,0,.266.064,2.837,2.837,0,0,0,1.913-.383,2.582,2.582,0,0,0,1.19-1.552,5,5,0,0,0,.159-.776,6.579,6.579,0,0,0,.054-.84,4.544,4.544,0,0,0-.447-1.775,2.459,2.459,0,0,0-1.3-1.222,1.919,1.919,0,0,0-.4-.128c-.141-.028-.276-.049-.4-.064a2.9,2.9,0,0,0-1.828.447,2.62,2.62,0,0,0-1.148,1.488,5.113,5.113,0,0,0-.16.754,4.115,4.115,0,0,0-.032.776,4.4,4.4,0,0,0,.457,1.881,2.461,2.461,0,0,0,1.393,1.244Z" transform="translate(-195.269 -212.704)" fill="#3e384f"/>
      <path id="Path_10" data-name="Path 10" d="M303.423,217.24a9.6,9.6,0,0,1,1.881.223,3.3,3.3,0,0,1,1.626.925,3.228,3.228,0,0,1,.861,1.4,5.7,5.7,0,0,1,.245,1.658v6.994h-7.951a3.493,3.493,0,0,1-2.636-.946,3.357,3.357,0,0,1-.83-2.625,2.832,2.832,0,0,1,1.425-2.615,7.146,7.146,0,0,1,3.04-.6l3.89-.022q.064-1.38-.712-1.721a4.918,4.918,0,0,0-1.966-.34l-4.932-.021V217.24Zm-2.126,8.95H305v-2.317h-3.487a.189.189,0,0,1-.085.021h-.085a3.3,3.3,0,0,0-1.1.223.929.929,0,0,0-.532.946q-.043.829.457.978a4.5,4.5,0,0,0,1.138.17Z" transform="translate(-228.018 -213.18)" fill="#3e384f"/>
      <path id="Path_11" data-name="Path 11" d="M343.707,207.145v-4.06h2.955v4.06h3.125v2.232h-3.125v4.528q-.022,1.68.765,1.956a6.767,6.767,0,0,0,2.168.277h.191v2.211h-2.7a3.246,3.246,0,0,1-2.53-.936,3.645,3.645,0,0,1-.85-2.55v-5.485h-2.084v-2.232Z" transform="translate(-260.117 -203.085)" fill="#3e384f"/>
    </g>
    <g id="Group_17" data-name="Group 17" transform="translate(87.933 81.966)">
      <path id="Path_12" data-name="Path 12" d="M192.488,93.612a14.561,14.561,0,0,0-20.509-10.235l-.205.1a15.365,15.365,0,0,1,3.175,1.076,1.235,1.235,0,0,1,.137-.048,11.74,11.74,0,0,1,8.824,1.092,12.371,12.371,0,0,1-4.831,23.364V98.987h3.607l.3,3.086c.246.713.778.546.881.373.622-1.044.877-3.484,3.348-3.435,1.745-.124,1.684-3.024.32-3.135-.994-.02-2.347-1.069-4.143-3.115-.323-.368-.273-1.085-.627-1.471-.246-.269-.9-.187-1.147-.474a23.044,23.044,0,0,0-3.23-3.123,18.874,18.874,0,0,0-3.887-2.4,14.826,14.826,0,0,0-2.39-.85,11.476,11.476,0,0,0-7.854.635.09.09,0,0,0,.028.17c2.839.308,7.517.783,10.109,4.1A8,8,0,0,1,175.4,91.02a13.149,13.149,0,0,0-3.555,4.95v0l-.009.021q-.371.792-.721,1.688l-2.764,6.467a12.395,12.395,0,0,1,1.57-16.888,15.6,15.6,0,0,0-2.348-.67,14.578,14.578,0,1,0,24.911,7.026Z" transform="translate(-163.614 -81.966)" fill="#f28230"/>
      <path id="Path_13" data-name="Path 13" d="M193.245,90.6c.386.1.769.219,1.148.352Q193.825,90.75,193.245,90.6Z" transform="translate(-184.745 -88.122)" fill="#f28230"/>
      <path id="Path_14" data-name="Path 14" d="M198.166,92.167q-.17-.067-.342-.13C197.938,92.079,198.052,92.122,198.166,92.167Z" transform="translate(-188.011 -89.148)" fill="#f28230"/>
      <path id="Path_15" data-name="Path 15" d="M200.1,92.93c-.084-.037-.168-.073-.252-.108C199.933,92.857,200.016,92.894,200.1,92.93Z" transform="translate(-189.454 -89.708)" fill="#f28230"/>
    </g>
  </g>
</svg>
